<?xml version="1.0" encoding="UTF-8" standalone="no" ?>
<!DOCTYPE svg PUBLIC "-//W3C//DTD SVG 1.1//EN" "http://www.w3.org/Graphics/SVG/1.1/DTD/svg11.dtd">
<svg xmlns="http://www.w3.org/2000/svg" xmlns:xlink="http://www.w3.org/1999/xlink" version="1.1" width="1080" height="1080" viewBox="0 0 1080 1080" xml:space="preserve">
<desc>Created with Fabric.js 5.2.4</desc>
<defs>
</defs>
<g transform="matrix(1 0 0 1 540 540)" id="cd1b6354-c2cc-49ad-8d13-fbfac5d80d0d"  >
<rect style="stroke: none; stroke-width: 1; stroke-dasharray: none; stroke-linecap: butt; stroke-dashoffset: 0; stroke-linejoin: miter; stroke-miterlimit: 4; fill: rgb(255,255,255); fill-rule: nonzero; opacity: 1; visibility: hidden;" vector-effect="non-scaling-stroke"  x="-540" y="-540" rx="0" ry="0" width="1080" height="1080" />
</g>
<g transform="matrix(1 0 0 1 540 540)" id="521f27ae-2f0a-4b85-a334-f10b375ad04f"  >
</g>
<g transform="matrix(1 0 0 1 540 540)"  >
<g style="" vector-effect="non-scaling-stroke"   >
		<g transform="matrix(1 0 0 1 -49.33 0)"  >
<circle style="stroke: rgb(227,255,57); stroke-width: 8; stroke-dasharray: none; stroke-linecap: butt; stroke-dashoffset: 0; stroke-linejoin: miter; stroke-miterlimit: 4; fill: rgb(0,0,0); fill-rule: nonzero; opacity: 1;" vector-effect="non-scaling-stroke"  cx="0" cy="0" r="8" />
</g>
		<g transform="matrix(1 0 0 1 15.17 0.27)"  >
<path style="stroke: none; stroke-width: 1; stroke-dasharray: none; stroke-linecap: butt; stroke-dashoffset: 0; stroke-linejoin: miter; stroke-miterlimit: 4; fill: rgb(0,0,0); fill-rule: nonzero; opacity: 1;" vector-effect="non-scaling-stroke"  transform=" translate(-76.5, -12.27)" d="M 37.968 11.312 L 35.808 11.312 L 35.808 20 L 32.496 20 L 32.496 11.312 L 30.84 11.312 L 30.84 8 L 32.496 8 L 32.496 4.232 L 35.808 4.232 L 35.808 8 L 37.968 8 L 37.968 11.312 Z M 46.6113 11.384 C 46.3953 11.224 46.1553 11.1 45.8913 11.012 C 45.6273 10.916 45.3353 10.868 45.0153 10.868 C 44.4713 10.868 44.0073 11.008 43.6233 11.288 C 43.2473 11.56 42.9593 11.928 42.7593 12.392 C 42.5673 12.856 42.4713 13.372 42.4713 13.94 L 42.4713 20 L 39.1353 20 L 39.1353 8 L 42.4473 8 L 42.4473 9.236 C 42.8313 8.772 43.2833 8.4 43.8033 8.12 C 44.3313 7.832 44.9313 7.688 45.6033 7.688 C 45.8753 7.688 46.1393 7.696 46.3953 7.712 C 46.6513 7.72 46.8993 7.76 47.1393 7.832 L 46.6113 11.384 Z M 52.4622 20.312 C 51.3582 20.312 50.3502 20.028 49.4382 19.46 C 48.5342 18.892 47.8102 18.132 47.2662 17.18 C 46.7302 16.22 46.4622 15.16 46.4622 14 C 46.4622 13.12 46.6182 12.3 46.9302 11.54 C 47.2422 10.772 47.6702 10.1 48.2142 9.524 C 48.7662 8.94 49.4062 8.484 50.1342 8.156 C 50.8622 7.828 51.6382 7.664 52.4622 7.664 C 53.5662 7.664 54.5702 7.948 55.4742 8.516 C 56.3862 9.084 57.1102 9.848 57.6462 10.808 C 58.1902 11.768 58.4622 12.832 58.4622 14 C 58.4622 14.872 58.3062 15.688 57.9942 16.448 C 57.6822 17.208 57.2502 17.88 56.6982 18.464 C 56.1542 19.04 55.5182 19.492 54.7902 19.82 C 54.0702 20.148 53.2942 20.312 52.4622 20.312 Z M 52.4622 17 C 52.9742 17 53.4342 16.864 53.8422 16.592 C 54.2502 16.312 54.5702 15.944 54.8022 15.488 C 55.0342 15.032 55.1502 14.536 55.1502 14 C 55.1502 13.448 55.0262 12.944 54.7782 12.488 C 54.5382 12.024 54.2142 11.656 53.8062 11.384 C 53.3982 11.112 52.9502 10.976 52.4622 10.976 C 51.9582 10.976 51.5022 11.116 51.0942 11.396 C 50.6862 11.676 50.3622 12.044 50.1222 12.5 C 49.8902 12.956 49.7742 13.456 49.7742 14 C 49.7742 14.568 49.8942 15.08 50.1342 15.536 C 50.3822 15.984 50.7102 16.34 51.1182 16.604 C 51.5262 16.868 51.9742 17 52.4622 17 Z M 71.0198 13.868 L 71.0198 20 L 67.7078 20 L 67.7078 13.916 C 67.7078 13.356 67.5918 12.844 67.3598 12.38 C 67.1278 11.916 66.7998 11.544 66.3758 11.264 C 65.9598 10.984 65.4758 10.844 64.9238 10.844 C 64.3798 10.844 63.9158 10.984 63.5318 11.264 C 63.1478 11.544 62.8558 11.916 62.6558 12.38 C 62.4558 12.844 62.3558 13.356 62.3558 13.916 L 62.3558 20 L 59.0438 20 L 59.0438 8 L 62.3558 8 L 62.3558 9.236 C 62.7398 8.764 63.1918 8.384 63.7118 8.096 C 64.2398 7.808 64.8398 7.664 65.5118 7.664 C 66.6398 7.664 67.6118 7.944 68.4278 8.504 C 69.2518 9.064 69.8878 9.816 70.3358 10.76 C 70.7838 11.696 71.0118 12.732 71.0198 13.868 Z M 72.1949 20 L 72.1949 8 L 75.5069 8 L 75.5069 8.984 C 75.8509 8.672 76.2029 8.42 76.5629 8.228 C 76.9309 8.028 77.3269 7.928 77.7509 7.928 C 78.5109 7.928 79.2229 8.076 79.8869 8.372 C 80.5589 8.668 81.1469 9.088 81.6509 9.632 C 82.1629 9.08 82.7509 8.66 83.4149 8.372 C 84.0869 8.076 84.8029 7.928 85.5629 7.928 C 86.6029 7.928 87.5429 8.184 88.3829 8.696 C 89.2229 9.208 89.8869 9.892 90.3749 10.748 C 90.8709 11.604 91.1189 12.552 91.1189 13.592 L 91.1189 20 L 87.8069 20 L 87.8069 13.592 C 87.8069 13.152 87.7069 12.756 87.5069 12.404 C 87.3149 12.052 87.0509 11.772 86.7149 11.564 C 86.3789 11.348 85.9949 11.24 85.5629 11.24 C 85.1389 11.24 84.7549 11.348 84.4109 11.564 C 84.0749 11.772 83.8069 12.052 83.6069 12.404 C 83.4069 12.756 83.3069 13.152 83.3069 13.592 L 83.3069 20 L 79.9949 20 L 79.9949 13.592 C 79.9949 13.152 79.8949 12.756 79.6949 12.404 C 79.5029 12.052 79.2349 11.772 78.8909 11.564 C 78.5469 11.348 78.1669 11.24 77.7509 11.24 C 77.3349 11.24 76.9549 11.348 76.6109 11.564 C 76.2669 11.78 75.9949 12.068 75.7949 12.428 C 75.6029 12.78 75.5069 13.176 75.5069 13.616 L 75.5069 20 L 72.1949 20 Z M 101.028 8 L 104.34 8 L 104.34 20 L 101.016 20 L 100.872 18.752 C 100.56 19.216 100.16 19.592 99.6724 19.88 C 99.1844 20.168 98.6124 20.312 97.9564 20.312 C 97.0604 20.312 96.2204 20.144 95.4364 19.808 C 94.6604 19.472 93.9764 19.008 93.3844 18.416 C 92.8004 17.824 92.3404 17.14 92.0044 16.364 C 91.6764 15.58 91.5124 14.74 91.5124 13.844 C 91.5124 12.988 91.6684 12.188 91.9804 11.444 C 92.2924 10.7 92.7324 10.044 93.3004 9.476 C 93.8684 8.908 94.5204 8.464 95.2564 8.144 C 96.0004 7.824 96.7964 7.664 97.6444 7.664 C 98.3804 7.664 99.0444 7.82 99.6364 8.132 C 100.228 8.444 100.744 8.84 101.184 9.32 L 101.028 8 Z M 98.0524 17.132 C 98.6204 17.132 99.1204 16.984 99.5524 16.688 C 99.9844 16.384 100.312 15.984 100.536 15.488 C 100.76 14.992 100.836 14.444 100.764 13.844 C 100.7 13.292 100.52 12.792 100.224 12.344 C 99.9284 11.888 99.5524 11.528 99.0964 11.264 C 98.6484 11 98.1644 10.868 97.6444 10.868 C 97.0764 10.868 96.5724 11.016 96.1324 11.312 C 95.6924 11.608 95.3564 12.004 95.1244 12.5 C 94.8924 12.996 94.8044 13.548 94.8604 14.156 C 94.9324 14.7 95.1204 15.2 95.4244 15.656 C 95.7364 16.104 96.1204 16.464 96.5764 16.736 C 97.0404 17 97.5324 17.132 98.0524 17.132 Z M 113.705 11.384 C 113.489 11.224 113.249 11.1 112.985 11.012 C 112.721 10.916 112.429 10.868 112.109 10.868 C 111.565 10.868 111.101 11.008 110.717 11.288 C 110.341 11.56 110.053 11.928 109.853 12.392 C 109.661 12.856 109.565 13.372 109.565 13.94 L 109.565 20 L 106.229 20 L 106.229 8 L 109.541 8 L 109.541 9.236 C 109.925 8.772 110.377 8.4 110.897 8.12 C 111.425 7.832 112.025 7.688 112.697 7.688 C 112.969 7.688 113.233 7.696 113.489 7.712 C 113.745 7.72 113.993 7.76 114.233 7.832 L 113.705 11.384 Z M 122.163 11.312 L 120.003 11.312 L 120.003 20 L 116.691 20 L 116.691 11.312 L 115.035 11.312 L 115.035 8 L 116.691 8 L 116.691 4.232 L 120.003 4.232 L 120.003 8 L 122.163 8 L 122.163 11.312 Z" stroke-linecap="round" />
</g>
</g>
</g>
</svg>